# xmcd
#
# Track frame offsets: 
#        150
#        19724
#        42879
#        69839
#        75556
#        103132
#        120049
#        142501
#
# Disc length: 1985 seconds
#
# Revision: 0
# Processed by: cddbd v1.5.2PL0 Copyright (c) Steve Scherf et al.
# Submitted via: ExactAudioCopy v0.95b3
#
DISCID=4f07bf08
DTITLE=Rush  - HiFi Buys Amphitheatre Atlanta GA - 2007-06-13 - Disc 3
DTITLE=FLAC
DYEAR=1900
DGENRE=
TTITLE0=Summertime Blues
TTITLE1=The Spirit Of Radio
TTITLE2=Tom Sawyer
TTITLE3=Applause
TTITLE4=One Little Victory
TTITLE5=A Passage to Bangkok
TTITLE6=Yyz
TTITLE7=Video Outro
EXTD=
EXTT0=
EXTT1=
EXTT2=
EXTT3=
EXTT4=
EXTT5=
EXTT6=
EXTT7=
PLAYORDER=
